<?xml version="1.0" encoding="utf-8"?>
<!-- Generator: Adobe Illustrator 18.1.0, SVG Export Plug-In . SVG Version: 6.00 Build 0)  -->
<!DOCTYPE svg PUBLIC "-//W3C//DTD SVG 1.1//EN" "http://www.w3.org/Graphics/SVG/1.1/DTD/svg11.dtd">
<svg version="1.1" id="Lager_1" xmlns="http://www.w3.org/2000/svg" xmlns:xlink="http://www.w3.org/1999/xlink" x="0px" y="0px"
	 viewBox="-260 415.9 74.6 10" enable-background="new -260 415.9 74.6 10" xml:space="preserve">
<g>
	<path fill="#6C276A" d="M-215.3,423.9h-1.3v-8h1.3V423.9 M-218.3,423.9h-1.3v-1.2c-0.3,0.9-0.9,1.3-1.8,1.3c-0.7,0-1.3-0.3-1.6-0.9
		c-0.4-0.6-0.6-1.4-0.6-2.3c0-0.8,0.2-1.6,0.6-2.2c0.4-0.6,1-0.9,1.7-0.9c0.8,0,1.3,0.4,1.6,1v-2.9h1.3V423.9 M-219.6,420.4
		c0-0.5-0.1-0.8-0.3-1.1c-0.2-0.3-0.5-0.4-0.9-0.4c-0.4,0-0.7,0.2-0.9,0.5c-0.2,0.3-0.3,0.9-0.3,1.5c0,1.3,0.4,2,1.3,2
		c0.3,0,0.6-0.1,0.9-0.4c0.3-0.3,0.4-0.7,0.4-1.1V420.4 M-209.9,422l1.2,0.2c-0.1,0.5-0.4,1-0.9,1.3c-0.4,0.3-1,0.5-1.7,0.5
		c-0.8,0-1.5-0.3-2-0.8c-0.5-0.6-0.8-1.3-0.8-2.3c0-0.9,0.3-1.6,0.8-2.2c0.5-0.6,1.2-0.9,2.1-0.9c0.8,0,1.5,0.3,1.9,0.9
		c0.5,0.6,0.7,1.3,0.7,2.2l0,0.2h-4.1c0,0.4,0.1,0.7,0.1,0.9l0.4,0.6l0.9,0.3C-210.6,422.9-210.2,422.6-209.9,422 M-210,420.2
		c0-0.4-0.1-0.8-0.4-1.1c-0.3-0.3-0.6-0.4-1-0.4s-0.7,0.1-0.9,0.4c-0.2,0.2-0.4,0.6-0.4,1.1H-210 M-202.6,423.9h-1.3v-1.2
		c-0.3,0.9-0.9,1.3-1.8,1.3c-0.7,0-1.3-0.3-1.6-0.9c-0.4-0.6-0.6-1.4-0.6-2.3c0-0.8,0.2-1.6,0.7-2.2c0.4-0.6,1-0.9,1.7-0.9
		c0.8,0,1.3,0.4,1.6,1v-2.9h1.3V423.9 M-203.9,420.4c0-0.5-0.1-0.8-0.4-1.1s-0.5-0.4-0.9-0.4c-0.4,0-0.7,0.2-1,0.5
		c-0.2,0.3-0.3,0.9-0.3,1.5c0,1.3,0.4,2,1.3,2c0.3,0,0.6-0.1,0.8-0.4c0.3-0.3,0.4-0.7,0.4-1.1V420.4 M-195.9,423.9h-1.3l-0.2-1.2
		c-0.4,0.9-1,1.3-2,1.3c-0.6,0-1.1-0.2-1.5-0.5c-0.3-0.3-0.5-0.8-0.5-1.3c0-1.4,1.2-2,3.6-2h0.4v-0.5c0-0.6-0.4-0.9-1.3-0.9
		c-0.8,0-1.3,0.3-1.4,0.9l-1.1-0.1c0.1-0.5,0.3-0.9,0.8-1.2c0.4-0.3,1.1-0.5,1.9-0.5l1.1,0.1l0.7,0.4l0.4,0.6l0.1,1.1v2.6
		C-196.1,423.1-196.1,423.5-195.9,423.9 M-193.1,423.9h-1.4V418h1.2v1.4l0.7-1.2c0.3-0.3,0.6-0.4,1-0.4h0.1v1.5
		c-0.7,0-1.1,0.2-1.4,0.6c-0.2,0.4-0.3,0.9-0.3,1.3V423.9 M-186.8,422l1.2,0.2c-0.1,0.5-0.4,1-0.9,1.3c-0.4,0.3-1,0.5-1.7,0.5
		c-0.8,0-1.5-0.3-2-0.8c-0.5-0.6-0.8-1.3-0.8-2.3c0-0.9,0.3-1.6,0.8-2.2c0.5-0.6,1.2-0.9,2.1-0.9c0.8,0,1.5,0.3,1.9,0.9
		c0.5,0.6,0.7,1.3,0.7,2.2l-0.1,0.2h-4.1c0,0.4,0.1,0.7,0.1,0.9l0.5,0.6l0.8,0.3C-187.4,422.9-187,422.6-186.8,422 M-186.8,420.2
		c0-0.4-0.1-0.8-0.4-1.1c-0.3-0.3-0.6-0.4-0.9-0.4s-0.7,0.1-0.9,0.4c-0.2,0.2-0.4,0.6-0.4,1.1H-186.8 M-197.4,420.9
		c-1.7,0-2.6,0.4-2.6,1.2l0.3,0.6l0.8,0.3c0.5,0,0.9-0.1,1.1-0.5c0.3-0.3,0.4-0.7,0.4-1.1V420.9 M-237.7,423.9h-1.4V420
		c0-0.4-0.1-0.7-0.3-0.9l-0.6-0.3c-0.4,0-0.7,0.1-0.9,0.5c-0.2,0.3-0.4,0.8-0.4,1.5v3h-1.4v-8h1.4v3.1c0.3-0.8,0.9-1.3,1.8-1.3
		c1.2,0,1.8,0.7,1.8,2.1V423.9 M-231.1,423.9h-1.3l-0.2-1.2c-0.4,0.9-1,1.3-2,1.3c-0.6,0-1.1-0.2-1.4-0.5c-0.3-0.3-0.5-0.8-0.5-1.3
		c0-1.4,1.2-2,3.6-2h0.4v-0.5c0-0.6-0.4-0.9-1.3-0.9s-1.3,0.3-1.4,0.9l-1.2-0.1c0.1-0.5,0.3-0.9,0.8-1.2c0.4-0.3,1.1-0.5,1.9-0.5
		l1.2,0.1l0.7,0.4l0.4,0.6l0.1,1.1v2.6L-231.1,423.9 M-224.7,423.9h-1.4v-3.7c0-0.4-0.1-0.7-0.3-0.9l-0.6-0.3
		c-0.4,0-0.7,0.1-0.9,0.5c-0.3,0.3-0.4,0.8-0.4,1.4v3h-1.4V418h1.2v1.4c0.4-1,1-1.5,1.8-1.5c0.5,0,1,0.2,1.4,0.5
		c0.4,0.3,0.6,0.9,0.6,1.8V423.9 M-232.5,420.9c-1.7,0-2.6,0.4-2.6,1.2l0.3,0.6l0.8,0.3c0.5,0,0.9-0.1,1.2-0.5
		c0.3-0.3,0.4-0.7,0.4-1.1V420.9"/>
	<path fill="#D6E03D" d="M-255.4,420.8l-1.2-3.6l-1.1,3.6H-255.4 M-252.9,423.9h-1.6l-0.7-1.9h-3l-0.6,1.9h-1.2l2.6-8h1.8
		L-252.9,423.9 M-250.6,425.9h-1.4V418h1.3v1c0.4-0.8,1-1.1,1.8-1.1c0.7,0,1.2,0.3,1.5,0.8c0.4,0.6,0.6,1.3,0.6,2.2
		c0,0.8-0.2,1.6-0.6,2.2c-0.4,0.6-0.9,0.9-1.7,0.9c-0.7,0-1.3-0.3-1.6-1V425.9 M-250.6,421.4c0,0.4,0.1,0.8,0.4,1.1
		c0.3,0.3,0.6,0.4,0.9,0.4c0.4,0,0.8-0.2,0.9-0.5s0.3-0.8,0.3-1.4c0-0.6-0.1-1.1-0.3-1.5c-0.2-0.4-0.5-0.6-0.9-0.6
		c-0.4,0-0.7,0.2-0.9,0.5c-0.3,0.3-0.4,0.8-0.4,1.3V421.4 M-244.2,423.9h-1.4v-8h1.4V423.9"/>
</g>
</svg>
