<svg width="318.05px" height="34.1px" viewBox="0 0 318.05 34.1" xmlns="http://www.w3.org/2000/svg" xmlns:xlink="http://www.w3.org/1999/xlink">
  <defs/>
  <g>
    <path stroke="none" fill="#d6e03d" d="M304.9 10.9 L305 10.9 Q305.9 8.95 307.5 7.8 309.15 6.6 311.35 6.6 313.15 6.6 314.65 7.4 316.15 8.15 317.1 9.75 L317.7 11.2 317.95 12.9 318.05 14.6 318.05 16.2 318.05 27.45 314.9 27.45 314.9 14.9 314.85 12.95 Q314.8 11.9 314.35 11.1 313.85 10.25 312.85 9.75 311.9 9.3 310.9 9.3 309.65 9.3 308.55 9.85 307.5 10.35 306.7 11.3 305.7 12.55 305.35 13.9 305.1 15.3 305.1 16.8 L305.1 27.45 301.95 27.45 301.95 7.15 304.9 7.15 304.9 10.9 M293.95 15.2 Q293.95 13.95 293.6 12.8 293.25 11.7 292.55 10.85 291.9 10 290.85 9.5 289.85 9 288.5 9 287.2 9 286.15 9.55 285.1 10.05 284.4 10.9 283.65 11.75 283.25 12.9 282.8 14 282.75 15.2 L293.95 15.2 M297.05 21.9 Q296.6 23.3 295.75 24.4 L293.75 26.25 Q292.6 27.05 291.25 27.45 L288.4 27.85 Q286.1 27.85 284.35 27 282.6 26.1 281.45 24.7 280.25 23.25 279.65 21.3 279.1 19.4 279.1 17.3 279.1 15.2 279.7 13.25 280.35 11.35 281.5 9.85 282.7 8.35 284.45 7.5 286.2 6.6 288.5 6.6 290.85 6.6 292.55 7.55 294.3 8.45 295.35 9.95 296.45 11.5 296.9 13.45 297.4 15.4 297.35 17.55 L282.6 17.55 Q282.6 18.7 282.75 19.85 282.85 20.95 283.45 22.1 284.15 23.55 285.6 24.4 287.05 25.2 288.65 25.2 290.65 25.2 292 24.15 293.4 23.1 294.1 21.3 L297.05 21.9 M262.1 14.85 L262.1 13.95 Q262.1 11.3 260.9 10.15 259.7 9.05 256.95 9.05 L255.05 9.2 Q254.15 9.35 253.4 9.8 252.7 10.2 252.15 10.9 251.6 11.6 251.4 12.65 L248.5 12.2 Q248.7 10.6 249.55 9.5 250.45 8.45 251.65 7.8 252.9 7.2 254.4 6.9 L257.25 6.6 260.6 6.95 Q262.3 7.3 263.5 8.6 L264.45 10.1 264.95 11.75 265.15 13.5 265.15 15.3 265.15 23.15 265.25 25.4 265.6 27.45 262.45 27.45 262.1 23.65 Q261.05 25.85 259.25 26.85 257.45 27.85 255 27.85 L252.3 27.45 Q251 27.05 250.05 26.25 249.1 25.5 248.5 24.35 247.9 23.2 247.9 21.7 247.9 19.85 248.95 18.35 250 16.8 251.7 16.05 253.4 15.25 255.5 15.05 L259.5 14.85 262.1 14.85 M271.25 27.45 L271.25 0 274.35 0 274.35 27.45 271.25 27.45 M246.1 27.6 L243.05 27.85 240.3 27.4 238.55 26.05 Q237.9 25.15 237.6 23.95 237.3 22.7 237.3 21.2 L237.3 9.45 233.7 9.45 233.7 6.95 237.3 6.95 237.3 1.9 240.45 1.6 240.45 6.95 244.95 6.95 244.95 9.45 240.45 9.45 240.45 21.75 Q240.45 23.5 241.1 24.4 241.75 25.3 243.7 25.3 L246.1 25.15 246.1 27.6 M262.1 17.2 L259.55 17.2 256.9 17.35 Q255.45 17.5 254.2 18 252.95 18.45 252.1 19.35 251.3 20.3 251.3 21.85 251.3 22.8 251.65 23.45 L252.65 24.55 254.05 25.2 255.7 25.4 258.3 24.85 Q259.5 24.3 260.35 23.35 261.2 22.35 261.65 21.1 262.1 19.9 262.1 18.5 L262.1 17.2 M224.5 7.15 L224.5 11.9 224.55 11.9 225.45 9.9 Q225.95 8.95 226.7 8.2 L228.35 7 230.55 6.55 231.7 6.65 231.7 9.65 231.05 9.65 Q229.25 9.65 228 10.5 226.7 11.35 225.8 12.85 225.15 13.95 225 15 L224.8 17.2 224.8 27.45 221.7 27.45 221.7 7.15 224.5 7.15 M202.35 17.1 L202.6 20 Q202.85 21.5 203.5 22.7 204.2 23.85 205.4 24.55 206.55 25.25 207.95 25.25 209.5 25.25 210.7 24.5 211.95 23.7 212.65 22.35 213.3 21.1 213.45 19.8 L213.65 17.1 213.4 14.25 Q213.15 12.8 212.35 11.55 211.65 10.45 210.45 9.8 209.3 9.15 207.95 9.15 206.5 9.15 205.25 9.95 204.05 10.75 203.35 12.05 202.8 13.15 202.55 14.5 L202.35 17.1 M198.9 17.1 Q198.9 15 199.5 13.1 200.05 11.2 201.25 9.75 202.4 8.35 204.15 7.45 205.9 6.6 208.2 6.6 210.45 6.6 212.1 7.5 213.8 8.4 214.9 9.9 216 11.4 216.55 13.25 217.1 15.15 217.1 17.15 217.1 19.3 216.5 21.2 215.95 23.15 214.7 24.65 213.55 26.1 211.75 27 210 27.85 207.7 27.85 205.4 27.85 203.75 26.9 202.1 26 201 24.5 199.9 23 199.4 21.05 198.9 19.15 198.9 17.1 M192.45 17.25 L192.2 14.6 Q192 13.25 191.4 12.05 190.8 10.9 189.8 10.15 188.75 9.35 187.2 9.35 186.15 9.35 185.25 9.8 L183.7 10.9 182.5 12.5 Q182.05 13.35 181.85 14.35 L181.85 18.85 Q181.85 20.15 182.2 21.3 182.65 22.45 183.35 23.35 L185.05 24.7 Q186.05 25.2 187.2 25.2 188.45 25.2 189.6 24.5 190.7 23.8 191.35 22.7 192.05 21.55 192.25 20.1 L192.45 17.25 M181.85 34.1 L178.75 34.1 178.75 7.15 181.55 7.15 181.55 11.05 181.65 11.05 Q182.45 9 184.05 7.8 185.65 6.6 187.9 6.6 190.05 6.6 191.55 7.55 193.1 8.5 194.05 10.05 195.05 11.55 195.5 13.45 195.95 15.3 195.95 17.1 L195.6 20.7 Q195.25 22.55 194.3 24.05 193.3 25.75 191.65 26.8 190 27.85 187.9 27.85 185.8 27.85 184.35 26.9 182.85 26 181.85 24.25 L181.85 34.1"/>
    <path stroke="none" fill="#6c276a" d="M167.9 7.15 L167.9 11.9 167.95 11.9 168.85 9.9 Q169.35 8.95 170.1 8.2 170.8 7.45 171.75 7 172.7 6.55 173.95 6.55 L175.1 6.65 175.1 9.65 174.45 9.65 Q172.65 9.65 171.4 10.5 170.1 11.35 169.2 12.85 168.55 13.95 168.4 15 L168.2 17.2 168.2 27.45 165.1 27.45 165.1 7.15 167.9 7.15 M156.3 14.85 L156.3 13.95 Q156.3 11.3 155.1 10.15 153.9 9.05 151.15 9.05 L149.25 9.2 Q148.35 9.35 147.6 9.8 146.9 10.2 146.35 10.9 145.8 11.6 145.6 12.65 L142.7 12.2 Q142.9 10.6 143.75 9.5 144.65 8.45 145.85 7.8 147.1 7.2 148.6 6.9 L151.45 6.6 154.8 6.95 Q156.5 7.3 157.7 8.6 158.35 9.3 158.65 10.1 L159.15 11.75 159.35 13.5 159.35 15.3 159.35 23.15 159.45 25.4 159.8 27.45 156.65 27.45 156.3 23.65 Q155.25 25.85 153.45 26.85 151.65 27.85 149.2 27.85 L146.5 27.45 Q145.2 27.05 144.25 26.25 143.3 25.5 142.7 24.35 142.1 23.2 142.1 21.7 142.1 19.85 143.15 18.35 144.2 16.8 145.9 16.05 147.6 15.25 149.7 15.05 L153.7 14.85 156.3 14.85 M156.3 17.2 L153.75 17.2 151.1 17.35 Q149.65 17.5 148.4 18 147.15 18.45 146.3 19.35 145.5 20.3 145.5 21.85 145.5 22.8 145.85 23.45 L146.85 24.55 Q147.45 25 148.25 25.2 L149.9 25.4 Q151.3 25.4 152.5 24.85 153.7 24.3 154.55 23.35 L155.85 21.1 Q156.3 19.9 156.3 18.5 L156.3 17.2 M134.8 0 L137.95 0 137.95 27.45 135.05 27.45 135.05 23.85 135 23.85 Q134.05 25.75 132.5 26.8 130.9 27.85 128.65 27.85 126.6 27.85 125.05 26.95 123.55 26.05 122.45 24.4 121.4 22.85 120.95 21 120.5 19.15 120.5 17.3 120.5 15.35 121 13.45 121.5 11.55 122.5 10.05 123.55 8.5 125.1 7.55 126.7 6.6 128.9 6.6 130.9 6.6 132.3 7.5 133.75 8.35 134.8 9.9 L134.8 0 M134.8 15.4 L134.6 13.35 Q134.4 12.3 133.75 11.4 133 10.3 131.75 9.7 130.5 9.1 129.2 9.1 127.9 9.1 126.8 9.8 125.7 10.55 125.05 11.65 124.4 12.85 124.15 14.2 L123.9 16.9 124.1 19.6 Q124.25 21.1 124.85 22.35 125.45 23.55 126.45 24.4 127.5 25.25 129.1 25.25 130.5 25.25 131.65 24.55 132.8 23.9 133.6 22.8 134.3 21.8 134.55 20.8 L134.8 18.65 134.8 15.4 M116.85 21.9 Q116.4 23.3 115.55 24.4 L113.55 26.25 Q112.4 27.05 111.05 27.45 L108.2 27.85 Q105.9 27.85 104.15 27 102.4 26.1 101.25 24.7 100.05 23.25 99.45 21.3 98.9 19.4 98.9 17.3 98.9 15.2 99.5 13.25 100.15 11.35 101.3 9.85 102.5 8.35 104.25 7.5 106 6.6 108.3 6.6 110.65 6.6 112.35 7.55 114.1 8.45 115.15 9.95 116.25 11.5 116.7 13.45 117.2 15.4 117.15 17.55 L102.4 17.55 Q102.4 18.7 102.55 19.85 102.65 20.95 103.25 22.1 103.95 23.55 105.4 24.4 106.85 25.2 108.45 25.2 110.45 25.2 111.8 24.15 113.2 23.1 113.9 21.3 L116.85 21.9 M113.75 15.2 Q113.75 13.95 113.4 12.8 113.05 11.7 112.35 10.85 111.7 10 110.65 9.5 109.65 9 108.3 9 107 9 105.95 9.55 104.9 10.05 104.2 10.9 103.45 11.75 103.05 12.9 102.6 14 102.55 15.2 L113.75 15.2 M82 0 L85.15 0 85.15 27.45 82.25 27.45 82.25 23.85 82.2 23.85 Q81.25 25.75 79.7 26.8 78.1 27.85 75.85 27.85 73.8 27.85 72.25 26.95 70.75 26.05 69.65 24.4 68.6 22.85 68.15 21 67.7 19.15 67.7 17.3 67.7 15.35 68.2 13.45 68.7 11.55 69.7 10.05 70.75 8.5 72.3 7.55 73.9 6.6 76.1 6.6 78.1 6.6 79.5 7.5 80.95 8.35 82 9.9 L82 0 M82 15.4 L81.8 13.35 Q81.6 12.3 80.95 11.4 80.2 10.3 78.95 9.7 77.7 9.1 76.4 9.1 75.1 9.1 74 9.8 72.9 10.55 72.25 11.65 71.6 12.85 71.35 14.2 71.1 15.55 71.1 16.9 L71.3 19.6 Q71.45 21.1 72.05 22.35 72.65 23.55 73.65 24.4 74.7 25.25 76.3 25.25 77.7 25.25 78.85 24.55 L80.8 22.8 81.75 20.8 82 18.65 82 15.4 M91.05 27.45 L91.05 0 94.15 0 94.15 27.45 91.05 27.45 M50.3 10.9 L50.4 10.9 Q51.3 8.95 52.9 7.8 54.55 6.6 56.75 6.6 58.55 6.6 60.05 7.4 61.55 8.15 62.5 9.75 L63.1 11.2 63.35 12.9 63.45 14.6 63.45 16.2 63.45 27.45 60.3 27.45 60.3 14.9 60.25 12.95 Q60.2 11.9 59.75 11.1 59.25 10.25 58.25 9.75 L56.3 9.3 Q55.05 9.3 53.95 9.85 52.9 10.35 52.1 11.3 51.1 12.55 50.75 13.9 50.5 15.3 50.5 16.8 L50.5 27.45 47.35 27.45 47.35 7.15 50.3 7.15 50.3 10.9 M38.7 14.85 L38.7 13.95 Q38.7 11.3 37.5 10.15 36.3 9.05 33.55 9.05 L31.65 9.2 Q30.75 9.35 30 9.8 29.3 10.2 28.75 10.9 28.2 11.6 28 12.65 L25.1 12.2 Q25.3 10.6 26.15 9.5 27.05 8.45 28.25 7.8 29.5 7.2 31 6.9 L33.85 6.6 37.2 6.95 Q38.9 7.3 40.1 8.6 40.75 9.3 41.05 10.1 L41.55 11.75 41.75 13.5 41.75 15.3 41.75 23.15 41.85 25.4 42.2 27.45 39.05 27.45 38.7 23.65 Q37.65 25.85 35.85 26.85 34.05 27.85 31.6 27.85 L28.9 27.45 Q27.6 27.05 26.65 26.25 25.7 25.5 25.1 24.35 24.5 23.2 24.5 21.7 24.5 19.85 25.55 18.35 26.6 16.8 28.3 16.05 30 15.25 32.1 15.05 L36.1 14.85 38.7 14.85 M38.7 17.2 L36.15 17.2 33.5 17.35 Q32.05 17.5 30.8 18 29.55 18.45 28.7 19.35 27.9 20.3 27.9 21.85 27.9 22.8 28.25 23.45 L29.25 24.55 Q29.85 25 30.65 25.2 L32.3 25.4 Q33.7 25.4 34.9 24.85 L36.95 23.35 Q37.8 22.35 38.25 21.1 38.7 19.9 38.7 18.5 L38.7 17.2 M16.15 27.45 L16.15 14.4 3.45 14.4 3.45 27.45 0 27.45 0 0 3.45 0 3.45 11.4 16.15 11.4 16.15 0 19.6 0 19.6 27.45 16.15 27.45"/>
  </g>
</svg>