<?xml version="1.0" encoding="utf-8"?>
<!-- Generator: Adobe Illustrator 18.0.0, SVG Export Plug-In . SVG Version: 6.00 Build 0)  -->
<!DOCTYPE svg PUBLIC "-//W3C//DTD SVG 1.1//EN" "http://www.w3.org/Graphics/SVG/1.1/DTD/svg11.dtd">
<svg version="1.1" id="Lager_1" xmlns="http://www.w3.org/2000/svg" xmlns:xlink="http://www.w3.org/1999/xlink" x="0px" y="0px"
	 viewBox="0 0 128.1 109.8" enable-background="new 0 0 128.1 109.8" xml:space="preserve">
<g>
	<path fill="#6C276A" d="M104.2,44.1c2.9,0,5.4,1,7.5,3.1c2,2.1,3.1,4.5,3.1,7.5c0,2.9-1.1,5.4-3.1,7.5c-2.1,2-4.6,3.1-7.5,3.1H23.8
		c-2.9,0-5.4-1.1-7.5-3.1c-2.1-2.1-3.1-4.6-3.1-7.5c0-2.9,1-5.4,3.1-7.5c2-2.1,4.5-3.1,7.5-3.1H104.2 M104.2,77.1
		c2.9,0,5.4,1,7.5,3.1c2,2,3.1,4.5,3.1,7.5c0,2.9-1.1,5.4-3.1,7.5c-2.1,2.1-4.6,3.1-7.5,3.1H23.8c-2.9,0-5.4-1-7.5-3.1
		c-2.1-2.1-3.1-4.5-3.1-7.5c0-2.9,1-5.4,3.1-7.5c2-2.1,4.5-3.1,7.5-3.1H104.2 M104.2,11.1c2.9,0,5.4,1,7.5,3.1c2,2,3.1,4.5,3.1,7.5
		c0,2.9-1.1,5.4-3.1,7.5c-2.1,2-4.6,3.1-7.5,3.1H23.8c-2.9,0-5.4-1.1-7.5-3.1c-2.1-2.1-3.1-4.6-3.1-7.5s1-5.4,3.1-7.5
		c2-2.1,4.5-3.1,7.5-3.1H104.2"/>
</g>
</svg>
