<?xml version="1.0" encoding="utf-8"?>
<!-- Generator: Adobe Illustrator 18.1.0, SVG Export Plug-In . SVG Version: 6.00 Build 0)  -->
<!DOCTYPE svg PUBLIC "-//W3C//DTD SVG 1.1//EN" "http://www.w3.org/Graphics/SVG/1.1/DTD/svg11.dtd">
<svg version="1.1" xmlns="http://www.w3.org/2000/svg" xmlns:xlink="http://www.w3.org/1999/xlink" x="0px" y="0px"
	 viewBox="0 0 104.5 17.8" enable-background="new 0 0 104.5 17.8" xml:space="preserve">
<g id="Lager_2">
	<g>
		<rect x="236" y="409.7" fill="none" width="123" height="36.3"/>
	</g>
	<rect x="236" y="409.8" fill="none" width="9.1" height="9.1"/>
	<rect x="236" y="436.8" fill="none" width="9.1" height="9.1"/>
	<rect x="349.8" y="409.8" fill="none" width="9.1" height="9.1"/>
	<rect x="349.8" y="436.8" fill="none" width="9.1" height="9.1"/>
</g>
<g id="Lager_1">
	<path fill="#6C276A" d="M73.8,6.8c-0.6,0-1.1,0.5-1.4,0.7c-0.6,0.6-1.8,1.6-3,3.3c-0.1,0.2-0.3,0.2-0.3,0c0.3-1.3,0.5-2.2,0.5-3
		c0.1-0.4,0.1-1.1-0.5-1.1L67,9.3c0.5-0.2,0.6,0.1,0.5,1c-0.1,0.4-0.1,0.8-0.2,1.2c0,0,0,0,0,0c-1.3,1.1-2.7,2.2-4,3.2c0,0,0,0,0,0
		c-0.8,0.6-2.1,1.3-3,1.3c-1.3,0-2.1-0.8-2.1-2.8c0-0.3,0-0.5,0-0.7c0-0.3,0.1-0.3,0.2-0.4c1.2-0.4,2.5-0.8,3.7-1.4
		c1-0.5,2.4-1.3,2.4-2.4c0-1-0.8-1.6-1.6-1.6c-0.8,0-2.8,0.9-3.9,1.6c-0.2,0.1-0.5,0.4-0.8,0.7c0,0-0.3,0.3-1.1,0.4
		c-0.8,0.1-1.2,0-1.4-0.1C55.3,9.3,55,9.1,55,9.1c0-0.1,0-0.2,0-0.2s0.1-0.4,0.1-0.6c0-0.8-0.5-1.4-1.2-1.4c-0.8,0-1.3,0.6-1.4,1
		c-0.1,0.2,0,0.3,0.1,0.4c0.2,0.2,0.5,0.5,0.5,1.3c0,1.5-1.2,3.5-3.5,5.5c-0.3,0.3-0.4,0.3-0.4-0.1c0-1.2,0-2.6-0.1-4.2
		c-0.1-2-0.5-3.9-1.6-3.9l-1.3,1.7c0.5,0,0.7,0.7,0.9,2.2c-1.7,1.6-3.6,3-5.5,4.4c-0.3,0.2-0.5,0.2-0.6,0.2c-0.3,0-0.3-0.8,0-2.1
		c0.7-3.8,1.6-8.3,2.9-12.6L41,1.2c0.5,0,0.7,0.1,0.3,1.7c-0.2,1-0.4,2-0.7,2.9C40.5,6,39.8,7,39.8,7s-0.6,0.7-1,1
		c-0.6,0.5-1.1,0.7-1.2,0.8c-0.4,0.2-1.1,0.2-1.1,0.2c-0.1,0-0.1,0-0.2,0c-0.3-1.1-1-2.1-2.7-2.1c-0.9,0-2.2,0.6-3.5,1.3
		c-2.6,1.6-3.5,4.2-3.5,6.1c0,0.2,0,0.4,0,0.6l-0.3,0.3l-0.5,0.5c-0.6,0.5-1.1,0.8-1.1,0.8c-0.1,0-0.2,0.1-0.3,0.1c0,0-0.1,0-0.1,0
		c-1,0-1.8-1.1-2.3-1.8c-0.7-1-1.2-2.1-1.5-2.5c-0.1-0.3-0.3-0.5-0.5-0.7C20,11.3,20,11.2,20.4,11c0.9-0.5,2.8-1.8,3.3-2.1
		c0.4-0.3,1-0.8,1-1.2c0-0.3-0.2-0.8-0.8-0.8c-0.3,0-0.4,0.1-0.8,0.2c-0.4,0.2-0.7,0.4-1,0.6c-0.2,0.2-0.3,0.3-0.3,0.6
		c0,0.3-0.2,1-1,1.7c-0.8,0.7-1.7,1.2-2.5,1.6c-0.4,0.1-0.4,0.1-0.4-0.3c0.6-2.6,2-9.3,2.3-10.2l-2.8,0.4C18,1.4,18,1.6,17.8,2.6
		c-0.5,2.6-1.7,8.6-2.5,11.4c-0.2,0.8-0.5,1.9-0.8,3.1c-0.1,0.4-0.1,0.6,0.1,0.6c0.2,0,1.1-0.4,1.3-0.6c0.3-0.2,0.5-0.4,0.7-0.9
		c0.3-0.8,0.5-1.8,0.7-2.4c0.1-0.5,0.2-1,0.3-1.5C17.7,12,17.8,12,18,12c0.4,0.1,0.6,0.3,1.1,1.3c0.5,1,1.2,2.3,1.7,3.1
		c0.8,1,1.5,1.4,2.2,1.4c0.5,0,1.2-0.2,2-0.8c0.7-0.4,1.3-0.9,1.8-1.4c0.4,1.3,1.4,2,2.7,2c0.9,0,2.3-0.6,3.5-1.3
		c2.3-1.5,3.5-4.2,3.5-6.2c0-0.2,0-0.3,0-0.5c1.4,0.1,2.8-1,3.9-2.2c-0.6,2.5-1.1,5-1.7,7.5c-0.4,1.6-0.1,2.8,0.4,2.8
		c0.3,0,1.6-0.8,3.1-2.2c1.8-1.3,3.5-2.5,5.1-4c0.2,1.9,0.1,4.3,0,5.7c0,0.3,0,0.5,0.3,0.5c0.2,0,0.6-0.3,1-0.7
		c0.4-0.3,0.7-0.6,1.2-1.1c2.4-2.5,4.3-4.6,5.1-6.2c0.8,0.5,1.7,0.6,2.6,0.5c-0.7,1-1.4,2.5-1.4,4.6c0,1.5,0.7,2.9,2.4,2.9
		c1.5,0,4-1.4,5.3-2.5c1.1-0.9,2.3-1.8,3.4-2.7c-0.3,1.4-0.6,3-1.1,4.8c-0.1,0.4-0.1,0.6,0.1,0.6c0.2,0,1.1-0.4,1.3-0.6
		c0.2-0.2,0.5-0.4,0.6-0.9c0.3-0.8,0.4-1.8,0.6-2.4c0.1-0.6,0.4-1.2,0.8-2c1.2-1.8,2.3-2.8,2.9-2.8c0.2,0,0.4,0.1,0.5,0.2
		c0.1,0.1,0.3,0.2,0.4,0.2c0.2,0,0.5-0.2,1-0.8c0.4-0.4,0.7-0.9,0.7-1.1C75,7.4,74.7,6.8,73.8,6.8z M58.4,11.1
		c0.2-1,0.7-1.9,1.1-2.2C59.9,8.5,60.6,8,61.1,8c0.9,0,1.3,0.7,1.3,1.3c0,0.3-0.2,0.7-0.6,1c-0.7,0.4-1.6,0.8-3.1,1.1
		C58.3,11.4,58.3,11.3,58.4,11.1z M34.2,10.6c0,1.6-0.4,4.1-1.6,5.2c-0.4,0.4-1,0.6-1.5,0.6c-1.2,0-2.2-0.8-2.2-2.9
		c0-2.5,0.8-4.2,1.7-4.9C31,8.1,31.5,8,32.1,8C33.9,8,34.2,9.3,34.2,10.6z M14.2,0.7C13.6,0.3,12.5,0,11.1,0C9.5,0,7.8,0.4,6.2,1.5
		C4.4,2.6,3.7,3.9,3.7,5.4c0,1.7,1.4,2.9,3.7,3.9c1.7,0.7,4,1.7,4,3.8S9.9,16.5,7,16.5c-2.2,0-4.1-0.9-4.6-2.2
		c-0.2-0.4-0.3-0.8-0.3-1.1c0.1-0.2-0.3-0.2-0.5,0c-0.2,0.2-0.7,0.8-1.1,1.2C0.2,14.7,0,15,0,15.3c0,0.5,0.4,1.1,1.1,1.5
		c0.8,0.6,2.6,1,4.3,1c1.7,0,3.2-0.5,4.8-1.3c2-1,3.8-2.4,3.8-4.4c0-2.1-2.4-3.5-4.2-4.3C7.8,6.9,6,5.9,6,4c0-1.8,1.6-2.9,3.4-2.8
		c2.4,0,3.5,0.9,3.2,2.1c-0.1,0.4,0.4,0.5,0.7,0.2C13.7,3,14,2.8,14.3,2.4c0.3-0.3,0.4-0.5,0.4-0.7C14.7,1.4,14.6,1.1,14.2,0.7z
		 M104.2,7.2c-0.2,0-0.7,0-1.4,0H101c-0.1,0-0.2,0-0.2-0.2c0.1-0.7,0.6-1.7,1-2.4c0.1-0.2-0.1-0.2-0.4-0.1c-0.4,0.2-1.3,0.8-1.6,1.1
		C99.7,5.9,99.4,6.1,99,7c-0.1,0.2-0.2,0.3-0.4,0.3c-0.2,0-0.4,0.1-0.7,0.1c-0.5,0.1-1.4,0.4-1.6,0.6c-0.3,0.2-0.3,0.3,0.1,0.3h1.8
		c0.4,0,0.4,0.1,0.3,0.3c-0.2,0.9-0.5,1.9-0.8,3c-0.5,0.5-1,0.9-1.5,1.3c-0.8,0.6-1.5,1.3-2.3,1.9c0,0,0,0,0,0L93.5,15
		c-0.8,0.5-1.9,1-2.7,1c-1.3,0-2.1-0.8-2.1-2.8c0-0.3,0-0.5,0-0.7c0-0.3,0.1-0.3,0.2-0.4c1.2-0.4,2.5-0.8,3.7-1.4
		c1-0.5,2.4-1.3,2.4-2.4c0-1-0.8-1.6-1.6-1.6c-0.8,0-2.8,0.9-3.9,1.6c-0.8,0.5-3,2.4-3,6.2c0,0-0.1,0.2-0.8,0.9
		c-0.5,0.5-1.3,1-1.3,1c0,0-0.1,0-0.1,0c0,0,0,0-0.1,0c-1,0-1.8-1.1-2.2-1.8c-0.7-1-1.2-2.1-1.5-2.5c-0.1-0.3-0.3-0.5-0.5-0.7
		c-0.1-0.2-0.1-0.3,0.3-0.5c0.9-0.5,2.7-1.8,3.2-2.1c0.4-0.3,1-0.8,1-1.2c0-0.3-0.2-0.8-0.8-0.8c-0.3,0-0.4,0.1-0.8,0.2
		c-0.4,0.2-0.7,0.4-1,0.6c-0.2,0.2-0.3,0.3-0.3,0.6c0,0.3-0.2,1-1,1.7c-0.8,0.7-1.7,1.2-2.5,1.6c-0.4,0.1-0.4,0.1-0.4-0.3
		c0.6-2.6,2-9.3,2.3-10.2l-2.8,0.4c0.5-0.1,0.5,0.1,0.3,1.2c-0.5,2.6-1.7,8.6-2.5,11.4c-0.2,0.8-0.5,1.9-0.8,3.1
		c-0.1,0.4-0.1,0.6,0.1,0.6c0.2,0,1.1-0.4,1.3-0.6c0.2-0.2,0.5-0.4,0.7-0.9c0.3-0.8,0.5-1.8,0.7-2.4c0.1-0.5,0.2-1,0.3-1.5
		c0.1-0.3,0.1-0.4,0.3-0.4c0.4,0.1,0.6,0.3,1.1,1.3c0.5,1,1.2,2.3,1.7,3.1c0.8,1,1.5,1.4,2.2,1.4c0.5,0,1.3-0.2,2.1-0.9
		c0.6-0.4,1.2-0.9,1.7-1.4c0.2,1.1,0.9,2.1,2.3,2.1c1.6,0,4.2-1.5,5.4-2.6c0.7-0.5,1.4-1.1,2.1-1.7c0.3-0.3,0.6-0.5,0.9-0.8
		c-0.2,0.9-0.4,1.8-0.5,2.5c-0.3,1.4-0.2,2.6,0.6,2.6c0.6,0,2.8-1.5,4.3-3.1c0.1-0.1-0.1-0.3-0.3-0.2c-0.5,0.4-1.6,1.2-2.1,1.2
		c-0.3,0-0.4-0.6-0.1-1.9c0.2-1.1,0.7-3.6,1.2-5.1c0.1-0.2,0.1-0.2,0.3-0.2c0.3,0,0.7,0,1-0.1c0.2,0,0.8-0.1,1.2-0.2
		c0.7-0.2,1.3-0.6,1.4-0.7C104.6,7.2,104.5,7.1,104.2,7.2z M89,11.1c0.2-1,0.7-1.9,1.1-2.2C90.5,8.5,91.2,8,91.8,8
		C92.7,8,93,8.7,93,9.3c0,0.3-0.2,0.7-0.6,1c-0.7,0.4-1.6,0.8-3.1,1.1C89,11.4,89,11.3,89,11.1z"/>
</g>
</svg>
